# xmcd
#
# Track frame offsets:
#	150
#	16219
#	27120
#	43038
#	60849
#	74973
#	87534
#	101747
#	113003
#	126759
#	143777
#
# Disc length: 2081 seconds
# Revision: 0
# Processed by: cddbd v1.5.2PL0 Copyright (c) Steve Scherf et al.
# Submitted via: dBpowerAMP V12.0
#
DISCID=95081f0b
DTITLE=Junior Sisk and Ramblers Choice - The Mountains Are Calling Me Home
DYEAR=2017
DGENRE=Country
TTITLE0=What Goes Around Comes Around
TTITLE1=What a Way to Go
TTITLE2=Money (Will Not Save You)
TTITLE3=It's So Cold
TTITLE4=The Mountains are Calling Me Home
TTITLE5=I'm Not Listening Anymore
TTITLE6=Dying to Live Again
TTITLE7=Darling Do You Know Who Loves You
TTITLE8=Shape Up or Ship Out
TTITLE9=Take Time for Little Children
TTITLE10=You'll Be a Lost Ball
EXTD=
EXTT0=
EXTT1=
EXTT2=
EXTT3=
EXTT4=
EXTT5=
EXTT6=
EXTT7=
EXTT8=
EXTT9=
EXTT10=
PLAYORDER=
